<svg xmlns="http://www.w3.org/2000/svg" viewBox="0 0 64 64" width="64" height="64">
  <defs>
    <linearGradient id="bg" x1="0" y1="0" x2="0" y2="1">
      <stop offset="0%" stop-color="#1b1728"/>
      <stop offset="100%" stop-color="#120f1c"/>
    </linearGradient>
    <linearGradient id="tail" x1="0" y1="1" x2="1" y2="0">
      <stop offset="0%" stop-color="#483d8b" stop-opacity="0"/>
      <stop offset="100%" stop-color="#9370db" stop-opacity="0.85"/>
    </linearGradient>
    <radialGradient id="head" cx="40%" cy="38%" r="65%">
      <stop offset="0%" stop-color="#e6dcff"/>
      <stop offset="55%" stop-color="#9370db"/>
      <stop offset="100%" stop-color="#7d5fd0"/>
    </radialGradient>
    <radialGradient id="glow" cx="50%" cy="50%" r="50%">
      <stop offset="0%" stop-color="#9370db" stop-opacity="0.55"/>
      <stop offset="100%" stop-color="#9370db" stop-opacity="0"/>
    </radialGradient>
  </defs>

  <rect x="0" y="0" width="64" height="64" rx="14" fill="url(#bg)"/>

  <path d="M 38.5 26 L 13 51 L 33 33 Z" fill="url(#tail)"/>

  <circle cx="38.5" cy="25.5" r="15" fill="url(#glow)"/>
  <circle cx="38.5" cy="25.5" r="9.3" fill="url(#head)"/>

  <path d="M 20.5 15.5 L 22.3 20.8 L 27.6 22.6 L 22.3 24.4 L 20.5 29.7 L 18.7 24.4 L 13.4 22.6 L 18.7 20.8 Z" fill="#e6dcff"/>
  <path d="M 51 44.5 L 51.9 47 L 54.4 47.9 L 51.9 48.8 L 51 51.3 L 50.1 48.8 L 47.6 47.9 L 50.1 47 Z" fill="#9370db"/>
</svg>
